# xmcd CD database file
#
# Track frame offsets:
#	150
#	20672
#	113668
#	181476
#	249139
#
# Disc length: 3611 seconds
#
# Revision: 0
# Processed by: cddbd v1.5.2PL0 Copyright (c) Steve Scherf et al.
# Submitted via: CDex 1.51
#
DISCID=350e1905
DTITLE=Maneki Neko - Auracle
DYEAR=2005
DGENRE=New Age
TTITLE0=Miroku
TTITLE1=Daybreak
TTITLE2=Cats Sleeping On Clouds
TTITLE3=Drifting Between Stars
TTITLE4=The Road To Madurai
EXTD=YEAR: 2005
EXTT0=
EXTT1=
EXTT2=
EXTT3=
EXTT4=
PLAYORDER=
